<svg xmlns="http://www.w3.org/2000/svg" width="375" viewBox="0 0 375 375" height="375" version="1.0"><defs><clipPath id="a"><path d="M 178 112.5 L 197 112.5 L 197 230 L 178 230 Z M 178 112.5"/></clipPath><clipPath id="b"><path d="M 163.5 220 L 211.5 220 L 211.5 262.5 L 163.5 262.5 Z M 163.5 220"/></clipPath></defs><g clip-path="url(#a)"><path fill="#004AAD" d="M 178.742188 121.613281 C 178.742188 116.757812 182.671875 112.820312 187.527344 112.820312 C 192.382812 112.820312 196.316406 116.757812 196.316406 121.613281 L 196.316406 220.726562 C 196.316406 225.578125 192.382812 229.515625 187.527344 229.515625 C 182.671875 229.515625 178.742188 225.578125 178.742188 220.726562 L 178.742188 121.613281"/></g><g clip-path="url(#b)"><path fill="#004AAD" d="M 187.527344 262.179688 L 211.515625 220.632812 L 163.539062 220.632812 L 187.527344 262.179688 L 211.515625 220.632812 L 163.539062 220.632812 L 187.527344 262.179688"/></g></svg>