<svg xmlns="http://www.w3.org/2000/svg" width="375" viewBox="0 0 375 375" height="375" version="1.0"><defs><clipPath id="a"><path d="M 86.492188 106.695312 L 288 106.695312 L 288 267.945312 L 86.492188 267.945312 Z M 86.492188 106.695312"/></clipPath></defs><g clip-path="url(#a)"><path fill="#FFF" d="M 172.636719 264.601562 L 187.367188 244.976562 C 187.367188 244.976562 202.101562 264.601562 202.101562 264.601562 C 204.320312 267.558594 208.519531 268.152344 211.476562 265.9375 C 214.4375 263.722656 215.035156 259.527344 212.816406 256.570312 L 192.726562 229.808594 C 191.460938 228.121094 189.476562 227.128906 187.367188 227.128906 C 185.257812 227.128906 183.277344 228.121094 182.011719 229.808594 L 161.921875 256.570312 C 159.703125 259.527344 160.300781 263.722656 163.261719 265.9375 C 166.21875 268.152344 170.417969 267.558594 172.636719 264.601562 Z M 260.734375 207.058594 C 257.34375 169.570312 225.769531 140.148438 187.367188 140.148438 C 148.96875 140.148438 117.394531 169.570312 114.003906 207.058594 L 93.613281 207.058594 C 89.914062 207.058594 86.914062 210.054688 86.914062 213.75 C 86.914062 217.441406 89.914062 220.441406 93.613281 220.441406 L 281.125 220.441406 C 284.820312 220.441406 287.824219 217.441406 287.824219 213.75 C 287.824219 210.054688 284.820312 207.058594 281.125 207.058594 Z M 247.273438 207.058594 L 127.464844 207.058594 C 130.800781 176.96875 156.367188 153.53125 187.367188 153.53125 C 218.367188 153.53125 243.9375 176.96875 247.273438 207.058594 Z M 273.914062 156.101562 L 259.414062 164.464844 C 256.214844 166.3125 255.113281 170.40625 256.964844 173.605469 C 258.8125 176.800781 262.910156 177.898438 266.109375 176.050781 L 280.609375 167.6875 C 283.8125 165.84375 284.910156 161.746094 283.0625 158.550781 C 281.210938 155.351562 277.113281 154.253906 273.914062 156.101562 Z M 94.128906 167.6875 L 108.625 176.050781 C 111.828125 177.898438 115.925781 176.800781 117.773438 173.605469 C 119.621094 170.40625 118.523438 166.3125 115.324219 164.464844 L 100.824219 156.101562 C 97.625 154.253906 93.523438 155.351562 91.675781 158.550781 C 89.828125 161.746094 90.925781 165.84375 94.128906 167.6875 Z M 233.46875 120.59375 L 225.097656 135.078125 C 223.25 138.277344 224.347656 142.371094 227.550781 144.21875 C 230.75 146.0625 234.851562 144.96875 236.699219 141.769531 L 245.070312 127.28125 C 246.917969 124.085938 245.820312 119.988281 242.617188 118.144531 C 239.417969 116.296875 235.320312 117.394531 233.46875 120.59375 Z M 129.667969 127.28125 L 138.039062 141.769531 C 139.886719 144.96875 143.988281 146.0625 147.1875 144.21875 C 150.386719 142.371094 151.488281 138.277344 149.636719 135.078125 L 141.265625 120.59375 C 139.417969 117.394531 135.320312 116.296875 132.121094 118.144531 C 128.917969 119.988281 127.820312 124.085938 129.667969 127.28125 Z M 180.671875 113.386719 L 180.671875 126.769531 C 180.671875 130.460938 183.671875 133.457031 187.367188 133.457031 C 191.066406 133.457031 194.066406 130.460938 194.066406 126.769531 L 194.066406 113.386719 C 194.066406 109.691406 191.066406 106.695312 187.367188 106.695312 C 183.671875 106.695312 180.671875 109.691406 180.671875 113.386719 Z M 180.671875 113.386719" fill-rule="evenodd"/></g></svg>