<svg xmlns="http://www.w3.org/2000/svg" width="375" viewBox="0 0 375 375" height="375" version="1.0"><defs><clipPath id="a"><path d="M 86.492188 106.695312 L 288.242188 106.695312 L 288.242188 267.945312 L 86.492188 267.945312 Z M 86.492188 106.695312"/></clipPath></defs><g clip-path="url(#a)"><path fill="#FFF" d="M 161.816406 238.382812 L 181.988281 265.257812 C 183.261719 266.949219 185.25 267.945312 187.367188 267.945312 C 189.488281 267.945312 191.476562 266.949219 192.75 265.257812 L 212.921875 238.382812 C 215.148438 235.414062 214.550781 231.199219 211.578125 228.976562 C 208.605469 226.753906 204.390625 227.351562 202.164062 230.320312 L 187.367188 250.027344 C 187.367188 250.027344 172.574219 230.320312 172.574219 230.320312 C 170.347656 227.351562 166.132812 226.753906 163.160156 228.976562 C 160.1875 231.199219 159.589844 235.414062 161.816406 238.382812 Z M 261.039062 207.476562 C 257.636719 169.832031 225.929688 140.289062 187.367188 140.289062 C 148.808594 140.289062 117.101562 169.832031 113.699219 207.476562 L 93.222656 207.476562 C 89.507812 207.476562 86.496094 210.488281 86.496094 214.195312 C 86.496094 217.902344 89.507812 220.914062 93.222656 220.914062 L 281.515625 220.914062 C 285.226562 220.914062 288.242188 217.902344 288.242188 214.195312 C 288.242188 210.488281 285.226562 207.476562 281.515625 207.476562 Z M 247.523438 207.476562 L 127.214844 207.476562 C 130.5625 177.261719 156.238281 153.726562 187.367188 153.726562 C 218.496094 153.726562 244.171875 177.261719 247.523438 207.476562 Z M 274.273438 156.304688 L 259.714844 164.703125 C 256.5 166.558594 255.398438 170.671875 257.253906 173.882812 C 259.109375 177.09375 263.226562 178.195312 266.4375 176.339844 L 281 167.941406 C 284.210938 166.089844 285.316406 161.976562 283.460938 158.765625 C 281.605469 155.554688 277.488281 154.453125 274.273438 156.304688 Z M 93.738281 167.941406 L 108.296875 176.339844 C 111.511719 178.195312 115.628906 177.09375 117.484375 173.882812 C 119.339844 170.671875 118.238281 166.558594 115.023438 164.703125 L 100.464844 156.304688 C 97.25 154.453125 93.132812 155.554688 91.277344 158.765625 C 89.421875 161.976562 90.523438 166.089844 93.738281 167.941406 Z M 233.664062 120.648438 L 225.257812 135.195312 C 223.398438 138.40625 224.503906 142.519531 227.71875 144.375 C 230.933594 146.226562 235.046875 145.125 236.902344 141.914062 L 245.308594 127.367188 C 247.164062 124.15625 246.0625 120.046875 242.847656 118.191406 C 239.632812 116.335938 235.519531 117.4375 233.664062 120.648438 Z M 129.429688 127.367188 L 137.832031 141.914062 C 139.691406 145.125 143.804688 146.226562 147.019531 144.375 C 150.234375 142.519531 151.335938 138.40625 149.480469 135.195312 L 141.074219 120.648438 C 139.21875 117.4375 135.105469 116.335938 131.890625 118.191406 C 128.675781 120.046875 127.570312 124.15625 129.429688 127.367188 Z M 180.644531 113.414062 L 180.644531 126.851562 C 180.644531 130.558594 183.65625 133.570312 187.367188 133.570312 C 191.082031 133.570312 194.09375 130.558594 194.09375 126.851562 L 194.09375 113.414062 C 194.09375 109.707031 191.082031 106.695312 187.367188 106.695312 C 183.65625 106.695312 180.644531 109.707031 180.644531 113.414062 Z M 180.644531 113.414062" fill-rule="evenodd"/></g></svg>