<svg xmlns="http://www.w3.org/2000/svg" width="375" viewBox="0 0 375 375" height="375" version="1.0"><defs><clipPath id="a"><path d="M 87 61 L 288 61 L 288 325.460938 L 87 325.460938 Z M 87 61"/></clipPath><clipPath id="b"><path d="M 87 61 L 288 61 L 288 325.460938 L 87 325.460938 Z M 87 61"/></clipPath><clipPath id="c"><path d="M 81.035156 49.460938 L 294 49.460938 L 294 85 L 81.035156 85 Z M 81.035156 49.460938"/></clipPath></defs><g clip-path="url(#a)"><path fill="#4BB2A9" d="M 259.179688 325.453125 L 115.910156 325.453125 L 87.890625 61.015625 L 287.199219 61.015625 L 259.179688 325.453125"/></g><path fill="#269193" d="M 122.527344 79.617188 C 122.527344 82.617188 120.089844 85.054688 117.082031 85.054688 C 114.078125 85.054688 111.640625 82.617188 111.640625 79.617188 L 111.640625 61.816406 C 111.640625 58.8125 114.078125 56.375 117.082031 56.375 C 120.089844 56.375 122.527344 58.8125 122.527344 61.816406 L 122.527344 79.617188"/><g clip-path="url(#b)"><path fill="#269193" d="M 87.890625 61.015625 L 89.742188 78.5 C 99.855469 74.472656 110.566406 72.300781 121.660156 72.300781 C 183.378906 72.300781 258.503906 139.207031 258.503906 221.742188 C 258.503906 262.019531 246.582031 298.574219 227.203125 325.453125 L 259.179688 325.453125 L 287.199219 61.015625 L 87.890625 61.015625"/></g><path fill="#207779" d="M 286.539062 67.253906 L 287.199219 61.015625 L 87.890625 61.015625 L 88.550781 67.253906 L 286.539062 67.253906"/><path fill="#207779" d="M 119.886719 79.617188 C 119.886719 82.617188 117.453125 85.054688 114.445312 85.054688 C 111.4375 85.054688 109.003906 82.617188 109.003906 79.617188 L 109.003906 61.816406 C 109.003906 58.8125 111.4375 56.375 114.445312 56.375 C 117.453125 56.375 119.886719 58.8125 119.886719 61.816406 L 119.886719 79.617188"/><path fill="#207779" d="M 274.277344 79.617188 C 274.277344 82.617188 271.839844 85.054688 268.832031 85.054688 C 265.828125 85.054688 263.394531 82.617188 263.394531 79.617188 L 263.394531 61.816406 C 263.394531 58.8125 265.828125 56.375 268.832031 56.375 C 271.839844 56.375 274.277344 58.8125 274.277344 61.816406 L 274.277344 79.617188"/><g clip-path="url(#c)"><path fill="#4BB2A9" d="M 293.851562 49.453125 L 81.242188 49.453125 L 81.242188 62.308594 L 106.199219 62.308594 L 106.199219 78.625 C 106.199219 81.628906 108.636719 84.0625 111.640625 84.0625 C 114.648438 84.0625 117.085938 81.628906 117.085938 78.625 L 117.085938 62.308594 L 259.433594 62.308594 L 259.433594 78.625 C 259.433594 81.628906 261.871094 84.0625 264.878906 84.0625 C 267.882812 84.0625 270.320312 81.628906 270.320312 78.625 L 270.320312 62.308594 L 293.851562 62.308594 L 293.851562 49.453125"/></g><path fill="#C4ECFB" d="M 194.023438 162.171875 L 183.6875 176.144531 L 176.957031 185.238281 L 162.105469 174.261719 L 176.527344 154.761719 L 179.171875 151.195312 L 194.023438 162.171875"/><path fill="#A1E1F9" d="M 194.023438 162.171875 L 183.6875 176.144531 L 179.367188 175.121094 L 186.179688 171.097656 L 176.527344 154.761719 L 179.171875 151.195312 L 194.023438 162.171875"/><path fill="#FFF" d="M 203.789062 160.707031 L 193.726562 143.675781 C 189.03125 135.730469 178.246094 152.8125 178.246094 152.8125 L 188.3125 169.84375 L 181.492188 173.863281 L 204.199219 179.222656 L 210.605469 156.683594 L 203.789062 160.707031"/><path fill="#C4ECFB" d="M 214.023438 211.136719 L 205.414062 196.039062 L 199.8125 186.214844 L 215.863281 177.078125 L 227.875 198.144531 L 230.074219 202.003906 L 214.023438 211.136719"/><path fill="#A1E1F9" d="M 214.023438 211.136719 L 205.414062 196.039062 L 208.09375 192.503906 L 209.019531 200.359375 L 227.875 198.144531 L 230.074219 202.003906 L 214.023438 211.136719"/><path fill="#FFF" d="M 211.414062 220.65625 L 231.070312 218.34375 C 240.242188 217.265625 228.96875 200.503906 228.96875 200.503906 L 209.3125 202.8125 L 208.386719 194.960938 L 194.300781 213.539062 L 212.339844 228.511719 L 211.414062 220.65625"/><path fill="#C4ECFB" d="M 158.691406 203.167969 L 176.074219 203.441406 L 187.390625 203.621094 L 187.097656 222.078125 L 162.839844 221.699219 L 158.398438 221.628906 L 158.691406 203.167969"/><path fill="#A1E1F9" d="M 158.691406 203.167969 L 176.074219 203.441406 L 177.757812 207.550781 L 170.519531 204.347656 L 162.839844 221.699219 L 158.398438 221.628906 L 158.691406 203.167969"/><path fill="#FFF" d="M 151.816406 196.082031 L 143.8125 214.171875 C 140.078125 222.613281 160.25 221.4375 160.25 221.4375 L 168.253906 203.351562 L 175.5 206.550781 L 166.648438 184.976562 L 144.574219 192.882812 L 151.816406 196.082031"/></svg>