<svg xmlns="http://www.w3.org/2000/svg" width="375" viewBox="0 0 375 375" height="375" version="1.0"><defs><clipPath id="a"><path d="M 152 142 L 224 142 L 224 236.746094 L 152 236.746094 Z M 152 142"/></clipPath><clipPath id="b"><path d="M 152 142 L 224 142 L 224 236.746094 L 152 236.746094 Z M 152 142"/></clipPath><clipPath id="c"><path d="M 149.703125 138.496094 L 225.453125 138.496094 L 225.453125 151 L 149.703125 151 Z M 149.703125 138.496094"/></clipPath></defs><g clip-path="url(#a)"><path fill="#4BB2A9" d="M 213.058594 236.742188 L 162.109375 236.742188 L 152.144531 142.609375 L 223.023438 142.609375 L 213.058594 236.742188"/></g><path fill="#269193" d="M 164.460938 149.230469 C 164.460938 150.296875 163.59375 151.164062 162.523438 151.164062 C 161.457031 151.164062 160.589844 150.296875 160.589844 149.230469 L 160.589844 142.894531 C 160.589844 141.824219 161.457031 140.957031 162.523438 140.957031 C 163.59375 140.957031 164.460938 141.824219 164.460938 142.894531 L 164.460938 149.230469"/><g clip-path="url(#b)"><path fill="#269193" d="M 152.144531 142.609375 L 152.800781 148.832031 C 156.398438 147.398438 160.207031 146.625 164.152344 146.625 C 186.101562 146.625 212.816406 170.441406 212.816406 199.824219 C 212.816406 214.160156 208.578125 227.175781 201.6875 236.742188 L 213.058594 236.742188 L 223.023438 142.609375 L 152.144531 142.609375"/></g><path fill="#207779" d="M 222.789062 144.828125 L 223.023438 142.609375 L 152.144531 142.609375 L 152.378906 144.828125 L 222.789062 144.828125"/><path fill="#207779" d="M 163.519531 149.230469 C 163.519531 150.296875 162.65625 151.164062 161.585938 151.164062 C 160.515625 151.164062 159.652344 150.296875 159.652344 149.230469 L 159.652344 142.894531 C 159.652344 141.824219 160.515625 140.957031 161.585938 140.957031 C 162.65625 140.957031 163.519531 141.824219 163.519531 142.894531 L 163.519531 149.230469"/><path fill="#207779" d="M 218.425781 149.230469 C 218.425781 150.296875 217.5625 151.164062 216.492188 151.164062 C 215.421875 151.164062 214.554688 150.296875 214.554688 149.230469 L 214.554688 142.894531 C 214.554688 141.824219 215.421875 140.957031 216.492188 140.957031 C 217.5625 140.957031 218.425781 141.824219 218.425781 142.894531 L 218.425781 149.230469"/><g clip-path="url(#c)"><path fill="#4BB2A9" d="M 225.386719 138.492188 L 149.777344 138.492188 L 149.777344 143.070312 L 158.652344 143.070312 L 158.652344 148.878906 C 158.652344 149.945312 159.519531 150.8125 160.589844 150.8125 C 161.65625 150.8125 162.523438 149.945312 162.523438 148.878906 L 162.523438 143.070312 L 213.148438 143.070312 L 213.148438 148.878906 C 213.148438 149.945312 214.015625 150.8125 215.085938 150.8125 C 216.152344 150.8125 217.019531 149.945312 217.019531 148.878906 L 217.019531 143.070312 L 225.386719 143.070312 L 225.386719 138.492188"/></g><path fill="#C4ECFB" d="M 189.886719 178.617188 L 186.210938 183.589844 L 183.816406 186.828125 L 178.535156 182.921875 L 183.664062 175.980469 L 184.605469 174.710938 L 189.886719 178.617188"/><path fill="#A1E1F9" d="M 189.886719 178.617188 L 186.210938 183.589844 L 184.671875 183.226562 L 187.097656 181.796875 L 183.664062 175.980469 L 184.605469 174.710938 L 189.886719 178.617188"/><path fill="#FFF" d="M 193.359375 178.097656 L 189.78125 172.035156 C 188.109375 169.203125 184.277344 175.285156 184.277344 175.285156 L 187.855469 181.347656 L 185.429688 182.78125 L 193.503906 184.6875 L 195.785156 176.664062 L 193.359375 178.097656"/><path fill="#C4ECFB" d="M 197 196.046875 L 193.9375 190.675781 L 191.945312 187.175781 L 197.652344 183.921875 L 201.925781 191.421875 L 202.707031 192.796875 L 197 196.046875"/><path fill="#A1E1F9" d="M 197 196.046875 L 193.9375 190.675781 L 194.890625 189.414062 L 195.21875 192.210938 L 201.925781 191.421875 L 202.707031 192.796875 L 197 196.046875"/><path fill="#FFF" d="M 196.070312 199.4375 L 203.0625 198.613281 C 206.324219 198.230469 202.3125 192.261719 202.3125 192.261719 L 195.324219 193.085938 L 194.992188 190.289062 L 189.984375 196.902344 L 196.398438 202.234375 L 196.070312 199.4375"/><path fill="#C4ECFB" d="M 177.320312 193.210938 L 183.503906 193.308594 L 187.527344 193.371094 L 187.425781 199.941406 L 178.796875 199.808594 L 177.21875 199.78125 L 177.320312 193.210938"/><path fill="#A1E1F9" d="M 177.320312 193.210938 L 183.503906 193.308594 L 184.101562 194.773438 L 181.527344 193.632812 L 178.796875 199.808594 L 177.21875 199.78125 L 177.320312 193.210938"/><path fill="#FFF" d="M 174.875 190.6875 L 172.03125 197.128906 C 170.703125 200.132812 177.875 199.714844 177.875 199.714844 L 180.722656 193.277344 L 183.296875 194.414062 L 180.152344 186.738281 L 172.300781 189.550781 L 174.875 190.6875"/></svg>