<svg xmlns="http://www.w3.org/2000/svg" width="375" viewBox="0 0 375 375" height="375" version="1.0"><defs><clipPath id="a"><path d="M 178 145 L 197 145 L 197 262.5 L 178 262.5 Z M 178 145"/></clipPath><clipPath id="b"><path d="M 163.5 112.5 L 211.5 112.5 L 211.5 155 L 163.5 155 Z M 163.5 112.5"/></clipPath></defs><g clip-path="url(#a)"><path fill="#FF1616" d="M 196.257812 253.386719 C 196.257812 258.242188 192.328125 262.179688 187.472656 262.179688 C 182.617188 262.179688 178.683594 258.242188 178.683594 253.386719 L 178.683594 154.273438 C 178.683594 149.421875 182.617188 145.484375 187.472656 145.484375 C 192.328125 145.484375 196.257812 149.421875 196.257812 154.273438 L 196.257812 253.386719"/></g><g clip-path="url(#b)"><path fill="#FF1616" d="M 187.472656 112.820312 L 163.484375 154.367188 L 211.460938 154.367188 L 187.472656 112.820312 L 163.484375 154.367188 L 211.460938 154.367188 L 187.472656 112.820312"/></g></svg>